<svg preserveAspectRatio="none" width="100%" height="100%" overflow="visible" style="display: block;" viewBox="0 0 65.1783 65.1502" fill="none" xmlns="http://www.w3.org/2000/svg">
<g id="Group">
<path id="Vector" d="M65.1783 32.5751C65.1783 28.4891 62.7382 24.9619 59.2389 23.3744C64.1988 17.304 58.5147 7.90515 50.9887 8.15315H50.6692C49.0597 -0.462366 37.6377 -2.97891 32.5703 4.15956C27.4998 -2.98248 16.0789 -0.457652 14.4715 8.15315H14.1519C6.62547 7.90464 0.942383 17.3058 5.90173 23.3744C-1.96953 26.9026 -1.96495 38.2507 5.90173 41.7758C0.941874 47.8462 6.62598 57.2451 14.1519 56.9971H14.4715C16.081 65.6126 27.503 68.1292 32.5703 60.9907C37.6409 68.1327 49.0618 65.6079 50.6692 56.9971H50.9887C58.5152 57.2456 64.1983 47.8444 59.2389 41.7758C62.7382 40.1883 65.1783 36.6612 65.1783 32.5751ZM55.0817 38.8505H53.0351C50.5031 38.9449 50.5043 42.5783 53.0351 42.6717C55.3669 42.6717 57.264 44.5689 57.264 46.9006C57.264 50.3609 54.4489 53.176 50.9886 53.176H50.5392C49.7392 50.7998 47.4917 49.083 44.8491 49.083C43.794 49.083 42.9385 49.9385 42.9385 50.9937C42.9385 52.0488 43.794 52.9043 44.8491 52.9043C46.0525 52.9043 47.0315 53.8833 47.0315 55.0866C46.717 63.399 34.7951 63.399 34.4808 55.0866V46.9006C34.3868 44.3683 30.7527 44.3702 30.6596 46.9006V55.0866C30.3436 63.4004 18.4234 63.3981 18.109 55.0865C18.109 53.8832 19.088 52.9042 20.2913 52.9042C21.3464 52.9042 22.2019 52.0487 22.2019 50.9935C22.2019 49.9384 21.3464 49.0829 20.2913 49.0829C17.6489 49.0829 15.4012 50.7997 14.6012 53.1758H14.1518C10.6915 53.1758 7.87642 50.3607 7.87642 46.9005C7.87642 44.5686 9.77354 42.6716 12.1053 42.6716C14.6358 42.5789 14.637 38.9436 12.1053 38.8504H10.059C1.74319 38.5338 1.74956 26.6132 10.059 26.2997H12.1055C14.6376 26.2054 14.6363 22.572 12.1055 22.4785C9.7738 22.4785 7.87667 20.5814 7.87667 18.2496C7.87667 14.7894 10.6918 11.9743 14.1521 11.9743H14.6014C15.4015 14.3504 17.649 16.0672 20.2915 16.0672C21.3467 16.0672 22.2021 15.2118 22.2021 14.1566C22.2021 13.1014 21.3467 12.246 20.2915 12.246C19.0882 12.246 18.1092 11.267 18.1092 10.0636C18.4237 1.75128 30.3456 1.75128 30.6598 10.0636V18.2496C30.7538 20.782 34.388 20.7801 34.4811 18.2496V10.0638C34.7971 1.75001 46.7172 1.7523 47.0317 10.0639C47.0317 11.2672 46.0527 12.2462 44.8494 12.2462C43.7942 12.2462 42.9388 13.1017 42.9388 14.1568C42.9388 15.212 43.7942 16.0675 44.8494 16.0675C47.4918 16.0675 49.7395 14.3507 50.5395 11.9745H50.9889C54.4491 11.9745 57.2643 14.7896 57.2643 18.2499C57.2643 20.5818 55.3671 22.4787 53.0354 22.4787C50.5048 22.5715 50.5037 26.2068 53.0354 26.3H55.0819C63.3975 26.6163 63.3911 38.5369 55.0817 38.8505Z" fill="var(--fill-0, #5867EF)"/>
<path id="Vector_2" d="M26.5661 24.5255C23.2794 24.5255 20.5625 27.1814 20.5625 30.5291V38.7151C20.6565 41.2474 24.2906 41.2455 24.3837 38.7151V36.5328H28.7485V38.7151C28.8425 41.2474 32.4766 41.2455 32.5698 38.7151V30.5291C32.5696 27.2487 29.9197 24.5255 26.5661 24.5255ZM28.7484 32.7115H24.3836V30.5291C24.4891 27.6389 28.6416 27.6361 28.7484 30.5291V32.7115Z" fill="var(--fill-0, white)"/>
<path id="Vector_3" d="M42.8036 28.3468C45.336 28.2528 45.3341 24.6186 42.8036 24.5255H36.6642C34.1318 24.6195 34.1337 28.2536 36.6642 28.3468H37.8233V36.8045H36.6642C34.1318 36.8985 34.1337 40.5326 36.6642 40.6257H42.8036C45.336 40.5317 45.3341 36.8976 42.8036 36.8045H41.6445V28.3468H42.8036Z" fill="var(--fill-0, white)"/>
</g>
</svg>
