<svg preserveAspectRatio="none" width="100%" height="100%" overflow="visible" style="display: block;" viewBox="0 0 57.0413 48.892" fill="none" xmlns="http://www.w3.org/2000/svg">
<g id="Layer 5">
<path id="Vector" d="M10.1833 12.221C10.7235 12.221 11.2416 12.0064 11.6236 11.6244C12.0055 11.2424 12.2201 10.7244 12.2201 10.1842C12.2201 9.64396 12.0055 9.12589 11.6236 8.74391C11.2416 8.36193 10.7235 8.14734 10.1833 8.14734C9.64311 8.14734 9.12503 8.36193 8.74306 8.74391C8.36108 9.12589 8.14648 9.64396 8.14648 10.1842C8.14648 10.7244 8.36108 11.2424 8.74306 11.6244C9.12503 12.0064 9.64311 12.221 10.1833 12.221Z" fill="var(--fill-0, #5867EF)"/>
<path id="Vector_2" d="M20.3686 10.1842C20.3686 9.64396 20.154 9.12589 19.772 8.74391C19.39 8.36193 18.8719 8.14734 18.3317 8.14734C17.9289 8.14734 17.5351 8.2668 17.2001 8.49061C16.8652 8.71441 16.6041 9.03252 16.45 9.4047C16.2958 9.77688 16.2555 10.1864 16.3341 10.5815C16.4127 10.9766 16.6066 11.3396 16.8915 11.6244C17.1763 11.9093 17.5393 12.1033 17.9344 12.1818C18.3295 12.2604 18.739 12.2201 19.1112 12.0659C19.4834 11.9118 19.8015 11.6507 20.0253 11.3158C20.2491 10.9808 20.3686 10.587 20.3686 10.1842Z" fill="var(--fill-0, #5867EF)"/>
<path id="Vector_3" d="M54.9942 0H2.03682C1.49662 0 0.978549 0.214593 0.596571 0.596571C0.214593 0.978549 0 1.49662 0 2.03682V46.8469C0 47.3871 0.214593 47.9051 0.596571 48.2871C0.978549 48.6691 1.49662 48.8837 2.03682 48.8837H34.626C35.1661 48.8837 35.6842 48.6691 36.0662 48.2871C36.4482 47.9051 36.6628 47.3871 36.6628 46.8469C36.6628 46.3067 36.4482 45.7886 36.0662 45.4066C35.6842 45.0246 35.1661 44.8101 34.626 44.8101H4.07364V4.07364H52.9573V8.14728H26.4787C25.9385 8.14728 25.4204 8.36188 25.0384 8.74385C24.6564 9.12583 24.4418 9.6439 24.4418 10.1841C24.4418 10.7243 24.6564 11.2424 25.0384 11.6244C25.4204 12.0063 25.9385 12.2209 26.4787 12.2209H52.9573V26.4787C52.9573 27.0189 53.1719 27.5369 53.5539 27.9189C53.9359 28.3009 54.454 28.5155 54.9942 28.5155C55.5344 28.5155 56.0524 28.3009 56.4344 27.9189C56.8164 27.5369 57.031 27.0189 57.031 26.4787V2.03682C57.031 1.49662 56.8164 0.978549 56.4344 0.596571C56.0524 0.214593 55.5344 0 54.9942 0Z" fill="var(--fill-0, #5867EF)"/>
<path id="Vector_4" d="M51.2688 40.2272C52.6582 38.1212 53.2165 35.5744 52.8353 33.0804C52.4542 30.5863 51.1608 28.3224 49.2058 26.7275C47.2508 25.1326 44.7733 24.3202 42.2535 24.4477C39.7337 24.5752 37.3509 25.6335 35.5668 27.4176C33.7828 29.2016 32.7245 31.5844 32.597 34.1042C32.4695 36.6241 33.2819 39.1015 34.8768 41.0565C36.4717 43.0115 38.7356 44.3049 41.2296 44.686C43.7237 45.0672 46.2705 44.5089 48.3765 43.1195L53.55 48.293C53.9336 48.6766 54.4538 48.892 54.9962 48.892C55.5386 48.892 56.0588 48.6766 56.4423 48.293C56.8259 47.9095 57.0413 47.3893 57.0413 46.8469C57.0413 46.3045 56.8259 45.7843 56.4423 45.4007L51.2688 40.2272ZM36.6648 34.626C36.6648 33.4174 37.0232 32.236 37.6946 31.2312C38.366 30.2263 39.3203 29.4431 40.4369 28.9806C41.5534 28.5181 42.782 28.3971 43.9673 28.6329C45.1527 28.8687 46.2414 29.4506 47.096 30.3052C47.9506 31.1598 48.5325 32.2485 48.7683 33.4339C49.0041 34.6192 48.8831 35.8478 48.4206 36.9643C47.9581 38.0809 47.1749 39.0352 46.17 39.7066C45.1652 40.378 43.9838 40.7364 42.7752 40.7364C41.1547 40.7364 39.6004 40.0926 38.4545 38.9467C37.3086 37.8008 36.6648 36.2465 36.6648 34.626Z" fill="var(--fill-0, white)"/>
<path id="Vector_5" d="M18.3306 20.3682C18.3306 19.828 18.116 19.31 17.734 18.928C17.352 18.546 16.834 18.3314 16.2938 18.3314C15.2134 18.3314 14.1772 18.7606 13.4133 19.5246C12.6493 20.2885 12.2201 21.3247 12.2201 22.4051V24.4419C12.2201 24.9821 12.0055 25.5002 11.6236 25.8821C11.2416 26.2641 10.7235 26.4787 10.1833 26.4787C9.64311 26.4787 9.12503 26.6933 8.74306 27.0753C8.36108 27.4573 8.14648 27.9753 8.14648 28.5155C8.14648 29.0557 8.36108 29.5738 8.74306 29.9558C9.12503 30.3378 9.64311 30.5523 10.1833 30.5523C10.7235 30.5523 11.2416 30.7669 11.6236 31.1489C12.0055 31.5309 12.2201 32.049 12.2201 32.5892V34.626C12.2201 35.7064 12.6493 36.7425 13.4133 37.5065C14.1772 38.2704 15.2134 38.6996 16.2938 38.6996C16.834 38.6996 17.352 38.485 17.734 38.1031C18.116 37.7211 18.3306 37.203 18.3306 36.6628C18.3306 36.1226 18.116 35.6045 17.734 35.2226C17.352 34.8406 16.834 34.626 16.2938 34.626V32.5892C16.2904 31.0845 15.7319 29.634 14.7254 28.5155C15.7319 27.3971 16.2904 25.9465 16.2938 24.4419V22.4051C16.834 22.4051 17.352 22.1905 17.734 21.8085C18.116 21.4265 18.3306 20.9084 18.3306 20.3682Z" fill="var(--fill-0, white)"/>
<path id="Vector_6" d="M24.4411 30.5524C23.9009 30.5524 23.3828 30.767 23.0009 31.1489C22.6189 31.5309 22.4043 32.049 22.4043 32.5892C22.4043 33.1294 22.6189 33.6475 23.0009 34.0294C23.3828 34.4114 23.9009 34.626 24.4411 34.626H26.4779C27.0181 34.626 27.5362 34.4114 27.9182 34.0294C28.3002 33.6475 28.5148 33.1294 28.5148 32.5892C28.5148 32.049 28.3002 31.5309 27.9182 31.1489C27.5362 30.767 27.0181 30.5524 26.4779 30.5524H24.4411Z" fill="var(--fill-0, white)"/>
<path id="Vector_7" d="M32.5884 24.4419C32.5884 23.9017 32.3738 23.3836 31.9918 23.0017C31.6099 22.6197 31.0918 22.4051 30.5516 22.4051H24.4411C23.9009 22.4051 23.3828 22.6197 23.0009 23.0017C22.6189 23.3836 22.4043 23.9017 22.4043 24.4419C22.4043 24.9821 22.6189 25.5002 23.0009 25.8822C23.3828 26.2641 23.9009 26.4787 24.4411 26.4787H30.5516C31.0918 26.4787 31.6099 26.2641 31.9918 25.8822C32.3738 25.5002 32.5884 24.9821 32.5884 24.4419Z" fill="var(--fill-0, white)"/>
</g>
</svg>
